<svg width="81" height="83" viewBox="0 0 81 83" fill="none" xmlns="http://www.w3.org/2000/svg">
<path d="M40.3 2.53003C18.3 2.53003 0.459961 20.37 0.459961 42.37C0.459961 64.37 18.3 82.21 40.3 82.21C62.3 82.21 80.14 64.37 80.14 42.37C80.14 20.37 62.31 2.53003 40.3 2.53003ZM40.3 76.04C21.7 76.04 6.62997 60.96 6.62997 42.37C6.62997 23.78 21.71 8.70001 40.3 8.70001C58.89 8.70001 73.97 23.78 73.97 42.37C73.97 60.96 58.9 76.04 40.3 76.04Z" fill="#6287C5"/>
<path d="M40.43 11.96C43.694 11.96 46.34 9.31399 46.34 6.04999C46.34 2.78598 43.694 0.140015 40.43 0.140015C37.166 0.140015 34.52 2.78598 34.52 6.04999C34.52 9.31399 37.166 11.96 40.43 11.96Z" fill="#3D4F9D"/>
<path d="M7.67001 65.69C10.934 65.69 13.58 63.044 13.58 59.78C13.58 56.516 10.934 53.87 7.67001 53.87C4.40601 53.87 1.76001 56.516 1.76001 59.78C1.76001 63.044 4.40601 65.69 7.67001 65.69Z" fill="#3D4F9D"/>
<path d="M72.5399 65.69C75.8039 65.69 78.4499 63.044 78.4499 59.78C78.4499 56.516 75.8039 53.87 72.5399 53.87C69.2759 53.87 66.6299 56.516 66.6299 59.78C66.6299 63.044 69.2759 65.69 72.5399 65.69Z" fill="#3D4F9D"/>
</svg>
