<svg width="81" height="86" viewBox="0 0 81 86" fill="none" xmlns="http://www.w3.org/2000/svg">
<path d="M40.4201 3.33002C18.4201 3.33002 0.580078 21.17 0.580078 43.17C0.580078 65.17 18.4201 83.01 40.4201 83.01C62.4201 83.01 80.2601 65.17 80.2601 43.17C80.2601 21.17 62.4201 3.33002 40.4201 3.33002ZM40.4201 76.85C21.8201 76.85 6.75009 61.77 6.75009 43.18C6.75009 24.59 21.8301 9.51001 40.4201 9.51001C59.0101 9.51001 74.0901 24.59 74.0901 43.18C74.0901 61.77 59.0201 76.85 40.4201 76.85Z" fill="#6287C5"/>
<path d="M40.5501 85.69C43.8141 85.69 46.4601 83.044 46.4601 79.78C46.4601 76.516 43.8141 73.87 40.5501 73.87C37.2861 73.87 34.6401 76.516 34.6401 79.78C34.6401 83.044 37.2861 85.69 40.5501 85.69Z" fill="#3D4F9D"/>
<path d="M40.5501 12.76C43.8141 12.76 46.4601 10.114 46.4601 6.84998C46.4601 3.58597 43.8141 0.940002 40.5501 0.940002C37.2861 0.940002 34.6401 3.58597 34.6401 6.84998C34.6401 10.114 37.2861 12.76 40.5501 12.76Z" fill="#3D4F9D"/>
</svg>
