<svg width="81" height="83" viewBox="0 0 81 83" fill="none" xmlns="http://www.w3.org/2000/svg">
<path d="M40.5399 3.33002C18.5399 3.33002 0.699951 21.17 0.699951 43.17C0.699951 65.17 18.5399 83.01 40.5399 83.01C62.5399 83.01 80.38 65.17 80.38 43.17C80.38 21.17 62.5399 3.33002 40.5399 3.33002ZM40.5399 76.85C21.9399 76.85 6.86995 61.77 6.86995 43.18C6.86995 24.59 21.9499 9.51001 40.5399 9.51001C59.1299 9.51001 74.21 24.59 74.21 43.18C74.21 61.77 59.1399 76.85 40.5399 76.85Z" fill="#6287C5"/>
<path d="M40.67 12.76C43.934 12.76 46.58 10.114 46.58 6.84998C46.58 3.58597 43.934 0.940002 40.67 0.940002C37.406 0.940002 34.76 3.58597 34.76 6.84998C34.76 10.114 37.406 12.76 40.67 12.76Z" fill="#3D4F9D"/>
</svg>
