<svg width="78" height="66" viewBox="0 0 78 66" fill="none" xmlns="http://www.w3.org/2000/svg">
<path d="M39.43 11.96C42.694 11.96 45.34 9.31399 45.34 6.04999C45.34 2.78598 42.694 0.140015 39.43 0.140015C36.166 0.140015 33.52 2.78598 33.52 6.04999C33.52 9.31399 36.166 11.96 39.43 11.96Z" fill="#3D4F9D"/>
<path d="M6.67001 65.69C9.93402 65.69 12.58 63.044 12.58 59.78C12.58 56.516 9.93402 53.87 6.67001 53.87C3.40601 53.87 0.76001 56.516 0.76001 59.78C0.76001 63.044 3.40601 65.69 6.67001 65.69Z" fill="#3D4F9D"/>
<path d="M71.5399 65.69C74.8039 65.69 77.4499 63.044 77.4499 59.78C77.4499 56.516 74.8039 53.87 71.5399 53.87C68.2759 53.87 65.6299 56.516 65.6299 59.78C65.6299 63.044 68.2759 65.69 71.5399 65.69Z" fill="#3D4F9D"/>
</svg>
